<?xml version="1.0" encoding="UTF-8"?>
<svg version="1.1" xmlns="http://www.w3.org/2000/svg" width="512" height="512">
<path d="M0 0 C2.85864096 0.01607483 5.7158646 0.00006498 8.57446289 -0.01904297 C23.05797346 -0.036384 37.15313091 1.2155806 50.92797852 6.01611328 C52.02843506 6.39352661 52.02843506 6.39352661 53.15112305 6.77856445 C66.32036592 11.50277351 78.18613404 18.45730203 88.92797852 27.39111328 C90.31049805 28.52806641 90.31049805 28.52806641 91.72094727 29.68798828 C112.7304764 47.82315306 124.51817571 72.56403989 129.92797852 99.39111328 C130.10565356 100.25548508 130.28332861 101.11985687 130.46638775 102.01042175 C131.07159874 106.44298807 131.07604498 110.79092062 131.07514954 115.25952148 C131.07882622 116.24863431 131.08250291 117.23774714 131.08629102 118.25683308 C131.09729725 121.56852552 131.10116642 124.88018656 131.10498047 128.19189453 C131.11124716 130.56725158 131.11789414 132.94260765 131.12489319 135.31796265 C131.144089 142.44049817 131.1547136 149.56303422 131.16362098 156.68558836 C131.16800984 160.04199026 131.17337482 163.39839059 131.17860985 166.75479126 C131.19561119 177.91374891 131.21010735 189.07270559 131.21735859 200.23167419 C131.21926836 203.12368776 131.22118872 206.01570131 131.22314453 208.90771484 C131.22362827 209.62647675 131.22411201 210.34523865 131.22461041 211.08578122 C131.23291859 222.74054261 131.25827361 234.39520164 131.29072521 246.04991829 C131.32378709 258.02149065 131.34180626 269.99301092 131.34500283 281.96462917 C131.34716795 288.68405456 131.35591763 295.40333032 131.381464 302.12271118 C131.40468399 308.43957955 131.40900232 314.75617823 131.39870262 321.07307816 C131.39820576 323.39265462 131.4045701 325.71224411 131.41825867 328.03178024 C131.435888 331.19574772 131.42891518 334.3587378 131.41572571 337.52270508 C131.43217958 338.90276466 131.43217958 338.90276466 131.44896585 340.31070423 C131.38255782 346.89840582 129.99709165 350.29997301 125.29516602 355.03564453 C119.94383036 359.22425542 116.76661807 359.54748703 110.09130859 359.56811523 C109.17567139 359.57468643 108.26003418 359.58125763 107.31665039 359.58802795 C104.27693607 359.60778833 101.23727125 359.61943082 98.19750977 359.62939453 C97.15998755 359.63347006 96.12246532 359.63754559 95.05350304 359.64174461 C89.56008477 359.66261893 84.06669156 359.67691368 78.57324219 359.6862793 C72.90153726 359.69733505 67.2302256 359.73172166 61.55865955 359.771451 C57.19627662 359.79761418 52.83398731 359.80597098 48.47153282 359.80956078 C46.38118528 359.81442898 44.29084197 359.8260496 42.20057106 359.84459877 C39.27060589 359.86897912 36.34165692 359.86802682 33.41162109 359.86108398 C32.12160439 359.88029907 32.12160439 359.88029907 30.80552673 359.89990234 C25.02256014 359.85008593 21.69087277 358.7104912 16.92797852 355.39111328 C11.87790676 349.93157624 10.63047545 345.86747841 10.66969299 338.51869202 C10.66601729 337.71998686 10.66234158 336.9212817 10.65855449 336.09837335 C10.64856465 333.41862622 10.65272737 330.7390862 10.65673828 328.05932617 C10.65235155 326.13896463 10.64704958 324.21860499 10.64089966 322.29824829 C10.62939033 318.15946857 10.62393952 314.02074012 10.62301826 309.88194466 C10.62107763 303.32924369 10.60302231 296.77664851 10.58226013 290.22398376 C10.53306021 273.94012353 10.50223806 257.6562344 10.48095703 241.37231445 C10.46440792 228.73185094 10.44150279 216.09147771 10.39793628 203.45107454 C10.37622945 196.94664072 10.36809575 190.44237867 10.37032902 183.93791115 C10.36865355 179.87503193 10.3545507 175.81226323 10.33711624 171.74942398 C10.33155105 169.87626009 10.33099956 168.00307295 10.33605385 166.12990761 C10.37328491 150.70464141 9.72207876 136.32222851 -1.00561523 124.20751953 C-10.48372536 115.00766585 -22.91164653 110.59671244 -35.94702148 110.07861328 C-48.70932696 110.43755312 -60.57745472 115.28748916 -69.44702148 124.57861328 C-81.53016767 139.45017782 -82.52366919 156.34336578 -82.45678711 174.61791992 C-82.46090094 176.51332931 -82.46636658 178.40873617 -82.47306824 180.30413818 C-82.48471679 184.35657312 -82.48730539 188.40887215 -82.48271179 192.46132088 C-82.47586251 198.86982719 -82.49183445 205.2781566 -82.5111084 211.68663025 C-82.55203627 226.43267454 -82.5635215 241.17871318 -82.57463837 255.92480469 C-82.58514817 269.47214783 -82.60188208 283.0194051 -82.64273405 296.56669515 C-82.66109105 302.93789627 -82.66498325 309.30889265 -82.65779877 315.68011391 C-82.65627897 319.63552078 -82.66704633 323.59082465 -82.68117714 327.54620361 C-82.68518485 329.3808141 -82.68404617 331.21544408 -82.6774044 333.05004692 C-82.66903895 335.55262461 -82.67899388 338.0544876 -82.69348145 340.55702209 C-82.68314054 341.6472808 -82.68314054 341.6472808 -82.67259073 342.75956494 C-82.72219818 347.15273565 -83.40996378 349.88173468 -86.07202148 353.39111328 C-90.24673562 357.13765161 -93.75721244 359.63320602 -99.44744873 359.65853882 C-100.31645813 359.66706879 -101.18546753 359.67559875 -102.08081055 359.68438721 C-103.02633789 359.68348083 -103.97186523 359.68257446 -104.94604492 359.68164062 C-106.44920258 359.69171646 -106.44920258 359.69171646 -107.98272705 359.70199585 C-111.29900052 359.721009 -114.61507188 359.72490201 -117.93139648 359.72705078 C-120.23822106 359.73347734 -122.54504482 359.74020559 -124.85186768 359.7472229 C-129.69057097 359.75920464 -134.52920283 359.76290289 -139.36791992 359.76171875 C-145.55962638 359.76151573 -151.75087298 359.78879684 -157.94247055 359.82326317 C-162.70894461 359.84553488 -167.47530816 359.84955617 -172.24182892 359.8484993 C-174.52392407 359.85085565 -176.80602225 359.85968104 -179.0880661 359.87516403 C-182.28584155 359.89482491 -185.48262753 359.8889845 -188.68041992 359.87695312 C-189.61785034 359.88819214 -190.55528076 359.89943115 -191.52111816 359.91101074 C-197.46198828 359.85439543 -202.16277295 358.89141234 -207.07202148 355.39111328 C-210.86700532 350.62305666 -212.19576952 347.0119213 -212.20344925 340.99711227 C-212.20729039 339.87031925 -212.21113154 338.74352623 -212.21508908 337.58258796 C-212.2142226 336.33932502 -212.21335612 335.09606208 -212.21246338 333.81512451 C-212.2154345 332.49851279 -212.21840562 331.18190106 -212.22146678 329.82539201 C-212.22954601 326.16297212 -212.23132686 322.50057181 -212.23206425 318.83814406 C-212.23391321 314.89119041 -212.24145977 310.94424696 -212.24819946 306.99729919 C-212.26179004 298.36298608 -212.26780868 289.72867761 -212.27221012 281.09435558 C-212.27497142 275.70432372 -212.27920857 270.31429365 -212.28371429 264.924263 C-212.29590809 250.00467415 -212.30620707 235.08508674 -212.30958939 220.16549301 C-212.30980895 219.21032087 -212.31002852 218.25514874 -212.31025474 217.27103199 C-212.31047302 216.31355631 -212.31069129 215.35608062 -212.31091619 214.36959052 C-212.31135965 212.42933639 -212.31180622 210.48908226 -212.31225586 208.54882812 C-212.31247729 207.58639223 -212.31269872 206.62395634 -212.31292686 205.63235572 C-212.31687503 190.03675874 -212.33432913 174.44120848 -212.35761538 158.84562954 C-212.3813229 142.83887325 -212.39379097 126.8321404 -212.3949573 110.82536626 C-212.39587442 101.83615529 -212.40163596 92.84700519 -212.41977692 83.85781097 C-212.43516983 76.20326519 -212.44030317 68.54879908 -212.43203881 60.89424077 C-212.42812938 56.98857876 -212.42907611 53.08307723 -212.44309616 49.17743492 C-212.45581762 45.60084371 -212.45465319 42.02453385 -212.44250545 38.44794312 C-212.43961795 36.54348829 -212.45149759 34.63902868 -212.46392751 32.73461223 C-212.41897434 24.97694462 -211.82056715 19.84642783 -206.88452148 13.64111328 C-200.80500467 8.77749983 -194.63170055 7.94525875 -187.12084961 8.00292969 C-185.83627113 7.99504425 -185.83627113 7.99504425 -184.52574158 7.98699951 C-181.71806147 7.97388443 -178.91095653 7.98250731 -176.10327148 7.99267578 C-174.13846733 7.9906526 -172.1736639 7.98773914 -170.2088623 7.98397827 C-166.10018736 7.97956642 -161.99170869 7.98594928 -157.88305664 8 C-152.63089624 8.01709111 -147.37919585 8.00724383 -142.12705231 7.98928261 C-138.07257658 7.978414 -134.01820894 7.98190523 -129.96372986 7.98966599 C-128.027745 7.99165949 -126.09175016 7.98923875 -124.15577698 7.98222733 C-121.44465339 7.97456208 -118.73426272 7.98628768 -116.02319336 8.00292969 C-114.83686562 7.99382065 -114.83686562 7.99382065 -113.62657166 7.98452759 C-107.55858431 8.0531261 -101.89267259 9.09320832 -97.04858398 13.03955078 C-96.60256836 13.60931641 -96.15655273 14.17908203 -95.69702148 14.76611328 C-95.00479492 15.61302734 -95.00479492 15.61302734 -94.29858398 16.47705078 C-91.55026071 20.76583551 -90.77965132 24.65872748 -90.44702148 29.70361328 C-90.33487305 31.3065625 -90.33487305 31.3065625 -90.22045898 32.94189453 C-90.17147461 33.75013672 -90.12249023 34.55837891 -90.07202148 35.39111328 C-89.43264648 34.73111328 -88.79327148 34.07111328 -88.13452148 33.39111328 C-87.11840617 32.38631959 -86.09685652 31.3870118 -85.07202148 30.39111328 C-84.45198242 29.78654297 -83.83194336 29.18197266 -83.19311523 28.55908203 C-60.41276617 7.28903235 -30.32040003 -0.20222242 0 0 Z M-77.07202148 48.39111328 C-78.45523534 50.06019021 -79.81470641 51.74913395 -81.15405273 53.45361328 C-86.10190072 59.56712862 -91.52750031 65.07304134 -97.13452148 70.57861328 C-98.10570033 71.53972136 -99.07640562 72.50130819 -100.04663086 73.46337891 C-102.38384889 75.77734104 -104.72563806 78.0864519 -107.07202148 80.39111328 C-107.08748268 79.39846214 -107.08748268 79.39846214 -107.10325623 78.38575745 C-107.21108097 71.52440015 -107.32569757 64.66318062 -107.44433594 57.80200195 C-107.48776215 55.23822907 -107.52943133 52.67442582 -107.56933594 50.1105957 C-107.62685296 46.434477 -107.69060012 42.75851229 -107.75561523 39.08251953 C-107.77232773 37.92837051 -107.78904022 36.7742215 -107.80625916 35.58509827 C-107.83617699 33.99356178 -107.83617699 33.99356178 -107.86669922 32.36987305 C-107.89001564 30.960895 -107.89001564 30.960895 -107.9138031 29.52345276 C-107.83747308 27.40804663 -107.83747308 27.40804663 -109.07202148 26.39111328 C-136.79202148 26.39111328 -164.51202148 26.39111328 -193.07202148 26.39111328 C-193.07202148 130.34111328 -193.07202148 234.29111328 -193.07202148 341.39111328 C-162.38202148 341.39111328 -131.69202148 341.39111328 -100.07202148 341.39111328 C-100.03463867 327.83791016 -99.99725586 314.28470703 -99.95874023 300.32080078 C-99.9284582 291.72573854 -99.8974298 283.13068968 -99.86303711 274.53564453 C-99.80860695 260.89844997 -99.75719145 247.26129256 -99.72558594 233.62402344 C-99.70255088 223.69082825 -99.66909157 213.75773107 -99.62331992 203.82461369 C-99.59946187 198.56924768 -99.58068459 193.31397828 -99.57440758 188.05855942 C-99.56832305 183.1025584 -99.54820261 178.14680435 -99.51774597 173.19089508 C-99.50901942 171.38105363 -99.50523187 169.57117982 -99.50701332 167.76131821 C-99.52015594 148.23179433 -96.36271023 131.20917458 -84.07202148 115.39111328 C-83.60022461 114.75431641 -83.12842773 114.11751953 -82.64233398 113.46142578 C-73.52459086 101.87107435 -58.84643181 95.62731165 -44.75952148 92.70361328 C-25.14322098 91.04121493 -7.73105525 95.26011139 7.92797852 107.39111328 C8.75297852 107.99697266 9.57797852 108.60283203 10.42797852 109.22705078 C21.64188638 118.93408978 26.30078221 133.10835776 27.92797852 147.39111328 C28.31917701 153.77235815 28.29769041 160.17115207 28.33862305 166.56201172 C28.35781543 168.47509575 28.37783754 170.3881716 28.39862061 172.30123901 C28.45235424 177.46146824 28.49456878 182.62173337 28.53462458 187.78208447 C28.57857058 193.18732818 28.63323648 198.59246356 28.68673706 203.99761963 C28.78628664 214.21820867 28.8762762 224.43885835 28.96278179 234.65956521 C29.06178782 246.30177326 29.17152656 257.94387253 29.28214097 269.58597517 C29.50931354 293.52092443 29.72167542 317.45597442 29.92797852 341.39111328 C57.31797852 341.39111328 84.70797852 341.39111328 112.92797852 341.39111328 C112.9942161 311.96362075 113.04956954 282.53617183 113.0811745 253.10862425 C113.08492626 249.62799872 113.08880926 246.14737334 113.09277344 242.66674805 C113.09356037 241.97386946 113.0943473 241.28099088 113.09515808 240.56711597 C113.108183 229.37396764 113.13182064 218.18086592 113.1594369 206.98774516 C113.18757247 195.48753689 113.20394764 183.98736128 113.210244 172.48711926 C113.21414489 166.03393779 113.22327262 159.58086174 113.24516869 153.12771416 C113.2656397 147.04485872 113.27179093 140.96215144 113.26730156 134.87926483 C113.26812203 132.65539048 113.27402399 130.4315108 113.28559494 128.2076664 C113.36031316 113.09708687 112.47644029 99.16430287 107.24047852 84.82861328 C106.9870166 84.12663818 106.73355469 83.42466309 106.47241211 82.70141602 C97.13076778 57.89030007 77.9956774 38.50982863 54.36547852 27.07861328 C38.5434529 20.14687633 23.27712659 18.03139783 6.18408203 18.07543945 C3.63017861 18.07859512 1.07744248 18.05507478 -1.47631836 18.02978516 C-30.26646933 17.91938933 -56.44950255 27.86485902 -77.07202148 48.39111328 Z " fill="#FFFFFF" transform="translate(381.072021484375,148.60888671875)"/>
<path d="M0 0 C1.05964714 -0.00744736 1.05964714 -0.00744736 2.14070129 -0.01504517 C4.46791577 -0.02959756 6.79506202 -0.03645822 9.12231445 -0.04199219 C10.32132857 -0.04623325 10.32132857 -0.04623325 11.5445652 -0.05056 C15.7771093 -0.06552703 20.00961956 -0.07477136 24.2421875 -0.07910156 C28.59180851 -0.08457342 32.94111448 -0.10858124 37.29063702 -0.13707352 C40.65461601 -0.15579762 44.0185207 -0.16091073 47.38254738 -0.16243744 C48.98475676 -0.16544397 50.58696548 -0.17340405 52.18912315 -0.18662262 C73.93080676 -0.35315672 73.93080676 -0.35315672 81.6730957 6.84863281 C82.72110352 7.78255859 82.72110352 7.78255859 83.7902832 8.73535156 C89.95038317 16.17780697 90.37881551 22.62353049 90.31948853 31.97653198 C90.33096517 33.89955476 90.33096517 33.89955476 90.34267366 35.86142647 C90.36318465 39.404264 90.358883 42.94669565 90.35031247 46.48956609 C90.34536896 50.31655411 90.36341742 54.14344554 90.37838745 57.97039795 C90.40386074 65.46177888 90.40747146 72.95301637 90.40278693 80.44443332 C90.39921796 86.53494366 90.40272546 92.62541053 90.41123581 98.71591568 C90.41302138 100.0171541 90.41302138 100.0171541 90.41484302 101.34468017 C90.41726657 103.10710859 90.41969484 104.869537 90.42212777 106.63196541 C90.44387087 123.15285691 90.43955753 139.67366672 90.42735808 156.19456281 C90.4170204 171.29967389 90.43953004 186.40452698 90.47755452 201.50958703 C90.51632302 217.02950332 90.53282129 232.5492976 90.52530801 248.06926262 C90.52148567 256.77853964 90.52644227 265.4875971 90.55473709 274.19683456 C90.5785818 281.61118598 90.58135591 289.02518269 90.55715676 296.43953906 C90.54539064 300.2202116 90.5431462 304.00023563 90.56716156 307.78086472 C90.59292834 311.88501077 90.57192427 315.98761811 90.54653931 320.09176636 C90.56128788 321.27893875 90.57603645 322.46611114 90.59123194 323.68925846 C90.48895416 331.55723518 88.79142127 336.99746233 83.7980957 343.16113281 C77.2091866 349.30125699 70.95493447 351.45909152 61.93188477 351.4675293 C61.16678589 351.47585281 60.40168701 351.48417633 59.61340332 351.49275208 C57.09678986 351.51674595 54.58043624 351.52561178 52.0637207 351.53222656 C50.30263191 351.54120208 48.54154386 351.55032409 46.78045654 351.55958557 C43.09198153 351.5760501 39.40359701 351.58377085 35.71508789 351.58666992 C31.00990741 351.59204623 26.30558847 351.62970577 21.60065079 351.67541409 C17.96300219 351.70529429 14.32555815 351.71239587 10.68779755 351.71339607 C8.95438447 351.71757787 7.22096963 351.72992939 5.48767853 351.75091362 C-5.05053392 351.86832673 -14.1634267 351.7303546 -22.32781982 344.20042419 C-30.01748929 336.34008765 -30.64348702 328.04854902 -30.58958435 317.53555298 C-30.59496989 316.27395556 -30.60035543 315.01235814 -30.60590416 313.71253049 C-30.62031818 310.22675033 -30.61612683 306.74120742 -30.60873735 303.25541449 C-30.60399788 299.48979842 -30.61652243 295.72423311 -30.62675476 291.95863342 C-30.64393313 284.58758215 -30.64478474 277.21661616 -30.63954186 269.84555008 C-30.63549697 263.85277792 -30.6369475 257.86003093 -30.64229012 251.86725998 C-30.64341275 250.58683677 -30.64341275 250.58683677 -30.64455806 249.28054642 C-30.64608957 247.546303 -30.64762792 245.81205958 -30.64917303 244.07781617 C-30.6628947 227.82160957 -30.65746282 211.56545113 -30.64598782 195.30924563 C-30.63605676 180.44668439 -30.64899447 165.58424767 -30.67292201 150.72170563 C-30.69732184 135.45040354 -30.70691865 120.17915942 -30.70026928 104.90783823 C-30.6967789 96.33833913 -30.69899712 87.76893578 -30.71652031 79.19945145 C-30.73125338 71.90410403 -30.73186338 64.60891977 -30.7144494 57.31357552 C-30.70594588 53.59378942 -30.70377367 49.87429464 -30.71910095 46.15452385 C-30.7355338 42.11634054 -30.72078079 38.07885795 -30.70310974 34.04067993 C-30.71271475 32.87296228 -30.72231975 31.70524463 -30.73221582 30.50214159 C-30.6514783 21.52415411 -29.06088006 14.00179356 -22.8894043 7.22363281 C-16.25009305 1.18143307 -8.74570956 0.04689704 0 0 Z M-10.2019043 21.16113281 C-12.39862031 24.45620682 -12.4532937 25.42319074 -12.4591732 29.24837303 C-12.46562209 30.30673154 -12.47207099 31.36509005 -12.4787153 32.45552003 C-12.4756181 33.62232824 -12.47252089 34.78913646 -12.46932983 35.99130249 C-12.47386095 37.2276543 -12.47839206 38.46400611 -12.48306048 39.73782313 C-12.49355587 43.17613797 -12.49502606 46.61424419 -12.49267173 50.05256033 C-12.49226442 53.75817467 -12.50329449 57.46375754 -12.51278687 61.1693573 C-12.52941642 68.43178041 -12.53489729 75.69417106 -12.53601162 82.95661162 C-12.53696117 88.85848579 -12.54106677 94.76034923 -12.54741287 100.66222 C-12.56503058 117.38644379 -12.57425091 134.11064189 -12.57275192 150.83487503 C-12.57267201 151.73692487 -12.5725921 152.6389747 -12.57250977 153.56835938 C-12.572428 154.47150759 -12.57234624 155.37465581 -12.572262 156.30517216 C-12.57144894 170.94509697 -12.59059033 185.58491893 -12.6187865 200.22481398 C-12.64749398 215.24845532 -12.66132797 230.27204646 -12.65959895 245.29571593 C-12.65893431 253.73379267 -12.66445887 262.17176161 -12.68595505 270.60981369 C-12.7041388 277.79379444 -12.70853739 284.9776185 -12.6949362 292.16161226 C-12.68839226 295.82809469 -12.6883402 299.49427629 -12.7056427 303.16073036 C-12.72419566 307.13295932 -12.71185602 311.1047457 -12.69638062 315.07699585 C-12.70666774 316.23934262 -12.71695487 317.40168938 -12.72755373 318.59925878 C-12.71229193 324.7806791 -12.71229193 324.7806791 -10.29599953 330.35389137 C-6.61782763 333.52821916 -4.16388571 333.3010577 0.64697266 333.33813477 C1.3512439 333.34470596 2.05551514 333.35127716 2.78112793 333.35804749 C5.11621198 333.37778832 7.45123169 333.38944496 9.78637695 333.39941406 C10.5836791 333.40348959 11.38098125 333.40756512 12.20244408 333.41176414 C16.42272051 333.43262857 20.64296439 333.44692846 24.86328125 333.45629883 C29.22142088 333.46736216 33.57904976 333.50175964 37.93700886 333.54147053 C41.28878221 333.56762265 44.64043363 333.5759894 47.99230003 333.57958031 C49.59865962 333.5844502 51.20501363 333.59607575 52.81127357 333.6146183 C55.061605 333.63898042 57.31061209 333.63805084 59.56103516 333.63110352 C61.48058769 333.63990288 61.48058769 333.63990288 63.43891907 333.64888 C67.69581206 333.0307858 68.98460497 332.45129792 71.7980957 329.16113281 C72.572943 325.14983704 72.46727892 321.16413916 72.42628479 317.09008789 C72.43337918 315.83992543 72.44047356 314.58976297 72.44778293 313.3017168 C72.46674858 309.82935518 72.45444806 306.3576958 72.43706 302.88535166 C72.42371163 299.14157768 72.43911393 295.39790819 72.45088196 291.65414429 C72.46928197 284.31924858 72.46073062 276.98461888 72.44279373 269.6497314 C72.42878038 263.6896964 72.4248722 257.72973373 72.42823601 251.76968384 C72.42895217 250.49833831 72.42895217 250.49833831 72.4296828 249.20130903 C72.43070911 247.47961607 72.43176447 245.75792313 72.43284857 244.03623021 C72.4414204 228.80469913 72.42472499 213.57329666 72.39501953 198.34179688 C72.36618094 183.55463254 72.35909795 168.76765349 72.37451172 153.98046875 C72.39126454 137.8865805 72.39531749 121.79278026 72.37780136 105.69888973 C72.37595693 103.98345376 72.3741222 102.26801778 72.37229729 100.55258179 C72.37092915 99.28646937 72.37092915 99.28646937 72.36953338 97.99477893 C72.36392225 92.04041901 72.36724052 86.08610199 72.37384224 80.13174438 C72.38156573 72.87746627 72.37485853 65.62337069 72.3496672 58.36912942 C72.3371491 54.66632767 72.3310533 50.96381043 72.34220886 47.26099777 C72.35406159 43.25112586 72.3350368 39.24200503 72.3127594 35.23217773 C72.32100017 34.0559274 72.32924093 32.87967707 72.33773142 31.66778278 C72.32668373 30.59636634 72.31563604 29.52494989 72.30425358 28.42106628 C72.3030621 27.49519809 72.30187061 26.56932989 72.30064303 25.61540508 C71.63894078 22.38387365 70.33709735 21.20300667 67.7980957 19.16113281 C64.37555181 18.02028485 61.72128048 18.02017551 58.11108398 18 C57.43592743 17.9950351 56.76077087 17.99007019 56.06515503 17.98495483 C53.8328957 17.97035683 51.60070742 17.96353535 49.3684082 17.95800781 C47.81525674 17.95225461 46.26210529 17.9464969 44.70895386 17.94073486 C41.45236887 17.93023174 38.19580852 17.92438451 34.93920898 17.92089844 C30.770635 17.91541374 26.60238765 17.89138358 22.43391609 17.86292648 C19.22540338 17.84428392 16.01696912 17.83909366 12.80840683 17.83756256 C11.27184131 17.83453938 9.73527707 17.82652208 8.1987648 17.81337738 C6.04689057 17.7962817 3.89581147 17.79820516 1.74389648 17.8046875 C0.52050568 17.80104187 -0.70288513 17.79739624 -1.96334839 17.79364014 C-5.52601295 18.1979108 -7.36494527 19.00485269 -10.2019043 21.16113281 Z " fill="#FFFFFF" transform="translate(38.201904296875,156.8388671875)"/>
<path d="M0 0 C14.2067007 11.02520012 25.71136366 26.75726223 28.0234375 44.96484375 C29.68890575 65.9219859 25.51831618 85.22873429 11.8359375 101.77734375 C0.67435417 114.59818516 -14.52377396 123.80733311 -31.71704102 125.18432617 C-52.40470429 126.01615753 -70.28917185 123.14845606 -86.2265625 108.77734375 C-99.28279249 96.41858012 -108.64319049 80.7652882 -109.27734375 62.4765625 C-109.50349443 40.12565412 -104.58109251 22.9146664 -88.66796875 6.59765625 C-79.11552382 -2.48098741 -68.72368554 -7.85265305 -55.9765625 -11.03515625 C-55.23277344 -11.22851562 -54.48898438 -11.421875 -53.72265625 -11.62109375 C-34.48085794 -14.52241754 -16.12264678 -11.02348946 0 0 Z M-78.94140625 22.44921875 C-89.79231575 35.86185928 -92.33098011 49.1800131 -90.9765625 65.96484375 C-90.36806718 69.54085611 -89.42895598 72.64959775 -87.9765625 75.96484375 C-87.59371094 76.96451172 -87.59371094 76.96451172 -87.203125 77.984375 C-82.75119058 88.33818578 -72.85172075 97.84713359 -62.66015625 102.46875 C-50.54039491 107.2218631 -36.6983269 109.72294298 -23.9765625 105.40234375 C-10.82131269 99.60096029 0.79688214 90.53123215 6.25 76.8984375 C11.07717767 62.74681952 11.802384 49.11571891 5.8046875 35.12109375 C-1.06366769 21.53701349 -11.19762779 12.61651406 -25.49609375 7.7265625 C-26.31464844 7.47519531 -27.13320312 7.22382813 -27.9765625 6.96484375 C-28.58886719 6.77019531 -29.20117188 6.57554688 -29.83203125 6.375 C-48.10832986 2.87953305 -66.27160293 8.92863009 -78.94140625 22.44921875 Z " fill="#FFFFFF" transform="translate(108.9765625,16.03515625)"/>
</svg>
